<svg width="605" height="63" viewBox="0 0 605 63" fill="none" xmlns="http://www.w3.org/2000/svg">
<path fill-rule="evenodd" clip-rule="evenodd" d="M38.5534 0C47.6008 0 54.3256 2.23556 58.7278 6.70668C60.0514 8.03002 61.1057 9.52568 61.8896 11.1936L39.5689 14.9338C38.4623 14.559 37.1725 14.3715 35.6997 14.3715C31.7384 14.3715 28.5766 15.591 26.2152 18.0298C23.9128 20.4685 22.3431 23.8655 21.5049 28.2205L20.4322 33.7945C19.6057 38.0917 19.8692 41.4886 21.222 43.9853C22.6444 46.4245 25.2782 47.6436 29.1212 47.6436C32.9061 47.6436 35.9584 46.6859 38.2782 44.7695C40.5979 42.853 42.0931 40.1534 42.7636 36.6697H60.8576C59.283 44.8563 55.5039 51.1283 49.5214 55.4829C43.5979 59.8376 35.9652 62.0155 26.6221 62.0155C16.2152 62.0155 8.8237 59.4026 4.4487 54.1761C0.131842 48.9505 -1.04355 41.2272 0.923508 31.0077C2.88959 20.7879 7.03591 13.065 13.3634 7.83898C19.7501 2.61299 28.1464 0 38.5534 0ZM42.7016 17.0215L62.814 13.6513C63.0708 14.5355 63.2646 15.4598 63.3954 16.4244L44.1338 19.652C43.8751 18.8301 43.5001 18.086 43.0078 17.4201C42.9099 17.2826 42.8082 17.1497 42.7016 17.0215ZM44.5582 23.0642C44.534 23.8895 44.4322 24.7663 44.2539 25.6946H62.969C63.3654 23.6348 63.5747 21.6947 63.597 19.8741L44.5582 23.0642ZM78.2956 1.04522H131.071L128.304 15.4168H95.1318L93.5398 23.6913H121.923L119.275 37.4528H90.8925L89.1328 46.599H122.927L120.161 60.97H66.7655L78.2956 1.04522ZM142.306 1.04522H161.907L153.329 45.6403H184.64L181.69 60.97H130.777L142.306 1.04522ZM201.466 1.04522H254.242L251.477 15.4168H218.304L216.711 23.6913H245.095L242.448 37.4528H214.064L212.305 46.599H246.099L243.334 60.97H189.938L201.466 1.04522ZM291.313 0C299.118 0 305.232 1.56778 309.655 4.70343C314.089 7.78096 315.779 12.3682 314.725 18.4652L314.523 19.5105H296.163L296.231 19.1621C296.565 17.4201 296.195 15.9684 295.116 14.807C294.039 13.6456 292.17 13.065 289.509 13.065C286.907 13.065 284.824 13.4425 283.26 14.1974C281.754 14.9521 280.896 15.8813 280.684 16.9846C280.382 18.5523 281.104 19.7137 282.851 20.4685C284.598 21.2234 287.492 22.0073 291.535 22.8203C296.253 23.8074 300.072 24.8526 302.994 25.9559C305.986 27.0011 308.43 28.7431 310.327 31.1819C312.222 33.6209 312.798 36.9301 312.053 41.1111C310.69 48.1956 307.225 53.4505 301.658 56.8766C296.15 60.3029 289.315 62.0155 281.155 62.0155C271.635 62.0155 264.516 60.4472 259.798 57.3117C255.138 54.1761 253.573 48.6306 255.104 40.6762H273.641C273.061 43.6956 273.468 45.7272 274.863 46.7727C276.269 47.7597 278.659 48.2532 282.029 48.2532C284.513 48.2532 286.603 47.9918 288.299 47.4701C290.056 46.9472 291.091 45.8725 291.403 44.2467C291.682 42.7955 290.973 41.7206 289.274 41.0243C287.645 40.2695 284.868 39.4854 280.946 38.6729C276.18 37.6274 272.277 36.5527 269.236 35.4496C266.207 34.2881 263.733 32.4009 261.81 29.7883C259.89 27.1752 259.359 23.6331 260.218 19.1621C261.482 12.6005 264.98 7.78096 270.717 4.70343C276.524 1.56778 283.389 0 291.313 0ZM360.025 0C370.55 0 378.173 2.64205 382.893 7.92608C387.611 13.2103 388.999 20.9041 387.054 31.0077C385.111 41.1111 380.763 48.8052 374.01 54.0893C367.258 59.3735 358.619 62.0155 348.094 62.0155C337.568 62.0155 329.941 59.4026 325.21 54.1761C320.55 48.892 319.198 41.1697 321.152 31.0077C323.107 20.846 327.425 13.1521 334.109 7.92608C340.861 2.64205 349.499 0 360.025 0ZM357.26 14.3715C353.061 14.3715 349.629 15.62 346.96 18.1169C344.292 20.6137 342.55 23.9816 341.735 28.2205L340.662 33.7945C339.847 38.0341 340.293 41.4017 342 43.8985C343.707 46.3952 346.66 47.6436 350.859 47.6436C355.057 47.6436 358.489 46.3952 361.158 43.8985C363.887 41.4017 365.658 38.0341 366.473 33.7945L367.546 28.2205C368.361 23.9816 367.886 20.6137 366.119 18.1169C364.411 15.62 361.458 14.3715 357.26 14.3715ZM457.245 36.8433C455.671 45.0308 451.839 51.2727 445.748 55.5698C439.66 59.867 431.766 62.0155 422.068 62.0155C412.37 62.0155 405.274 59.867 400.779 55.5698C396.343 51.2727 394.913 45.0308 396.487 36.8433L403.375 1.04522H422.978L416.141 36.5819C415.492 39.9496 415.89 42.6501 417.331 44.6826C418.784 46.6566 421.256 47.6436 424.744 47.6436C428.234 47.6436 431.089 46.6273 433.314 44.5949C435.598 42.5634 437.057 39.8921 437.694 36.5819L444.53 1.04522H464.133L457.245 36.8433ZM509.371 60.97L489.333 31.879L483.737 60.97H465.732L477.261 1.04522H494.379L514.332 30.5722L520.013 1.04522H538.018L526.49 60.97H509.371ZM577.578 1.04522C598.924 1.04522 607.676 11.0327 603.834 31.0077C599.99 50.9829 587.395 60.97 566.05 60.97H539.618L551.146 1.04522H577.578ZM561.985 46.599H568.46C576.679 46.599 581.621 42.2727 583.286 33.6209L584.291 28.3947C585.954 19.7426 582.677 15.4168 574.459 15.4168H567.984L561.985 46.599Z" fill="black"/>
</svg>
